<?xml version="1.0" encoding="UTF-8" standalone="no"?>
<svg
   xmlns:dc="http://purl.org/dc/elements/1.1/"
   xmlns:cc="http://creativecommons.org/ns#"
   xmlns:rdf="http://www.w3.org/1999/02/22-rdf-syntax-ns#"
   xmlns:svg="http://www.w3.org/2000/svg"
   xmlns="http://www.w3.org/2000/svg"
   xmlns:sodipodi="http://sodipodi.sourceforge.net/DTD/sodipodi-0.dtd"
   xmlns:inkscape="http://www.inkscape.org/namespaces/inkscape"
   width="128"
   height="128"
   viewBox="0 0 33.866666 33.866666"
   version="1.1"
   id="svg3092"
   sodipodi:docname="miniLogo.svg"
   inkscape:export-filename="/home/cvanspl1/Pictures/reVerbLogo.png"
   inkscape:export-xdpi="96.000008"
   inkscape:export-ydpi="96.000008"
   inkscape:version="1.0.1 (3bc2e813f5, 2020-09-07)">
  <defs
     id="defs3086">
    <rect
       x="176.45239"
       y="148.93062"
       width="85.069801"
       height="18.618977"
       id="rect2934" />
    <rect
       x="176.45239"
       y="148.93062"
       width="85.069801"
       height="18.618977"
       id="rect3071" />
  </defs>
  <sodipodi:namedview
     id="base"
     pagecolor="#ffffff"
     bordercolor="#666666"
     borderopacity="1.0"
     inkscape:pageopacity="0.0"
     inkscape:pageshadow="2"
     inkscape:zoom="3.959798"
     inkscape:cx="61.026045"
     inkscape:cy="82.162284"
     inkscape:document-units="mm"
     inkscape:current-layer="layer1"
     inkscape:document-rotation="0"
     showgrid="false"
     fit-margin-top="0"
     fit-margin-left="0"
     fit-margin-right="0"
     fit-margin-bottom="0"
     units="px"
     inkscape:window-width="1530"
     inkscape:window-height="991"
     inkscape:window-x="26"
     inkscape:window-y="23"
     inkscape:window-maximized="0" />
  <metadata
     id="metadata3089">
    <rdf:RDF>
      <cc:Work
         rdf:about="">
        <dc:format>image/svg+xml</dc:format>
        <dc:type
           rdf:resource="http://purl.org/dc/dcmitype/StillImage" />
        <dc:title />
      </cc:Work>
    </rdf:RDF>
  </metadata>
  <g
     inkscape:label="Layer 1"
     inkscape:groupmode="layer"
     id="layer1"
     transform="translate(-70.764801,-130.46964)">
    <g
       id="g876">
      <path
         id="path2936"
         style="fill:#0f2938;fill-opacity:1;stroke:#2b74a3;stroke-width:1.44302;stroke-linecap:round;stroke-linejoin:round;stroke-miterlimit:4;stroke-dasharray:none;stroke-dashoffset:5;stroke-opacity:1"
         d="M 103.58014,147.45427 A 15.822103,15.80772 0 0 1 87.758034,163.26199 15.822103,15.80772 0 0 1 71.935931,147.45427 15.822103,15.80772 0 0 1 87.758034,131.64655 15.822103,15.80772 0 0 1 103.58014,147.45427 Z" />
      <path
         id="path2912"
         style="fill:#2b74a3;fill-opacity:1;stroke:#2b74a3;stroke-width:0.331596;stroke-linecap:round;stroke-linejoin:round;stroke-miterlimit:4;stroke-dasharray:none;stroke-dashoffset:5;stroke-opacity:1"
         d="m 92.81456,149.39408 -0.334494,0.33147 a 9.628612,3.6761527 0.49653311 0 1 4.7183,3.20631 9.628612,3.6761527 0.49653311 0 1 -9.652723,3.59589 9.628612,3.6761527 0.49653311 0 1 -9.603973,-3.75743 9.628612,3.6761527 0.49653311 0 1 4.634381,-3.09945 l -0.243163,-0.25436 a 11.079647,4.8448721 0.43534298 0 0 -5.654258,4.17311 11.079647,4.8448721 0.43534298 0 0 11.043331,4.92957 11.079647,4.8448721 0.43534298 0 0 11.115476,-4.76114 11.079647,4.8448721 0.43534298 0 0 -6.022877,-4.36397 z" />
      <path
         id="path2914"
         style="fill:#2b74a3;fill-opacity:1;stroke:#2b74a3;stroke-width:0.427806;stroke-linecap:round;stroke-linejoin:round;stroke-miterlimit:4;stroke-dasharray:none;stroke-dashoffset:5;stroke-opacity:1"
         d="m 83.421671,150.66148 a 6.3425842,2.291922 0.42898396 0 0 -2.314533,1.74887 6.3425842,2.291922 0.42898396 0 0 6.325182,2.33988 6.3425842,2.291922 0.42898396 0 0 6.359485,-2.24438 6.3425842,2.291922 0.42898396 0 0 -2.206945,-1.7583 l -0.106202,0.10812 a 5.4028921,1.8240616 1.1114264 0 1 1.399426,1.26173 5.4028921,1.8240616 1.1114264 0 1 -3.228252,1.60213 5.1665156,1.7455553 0.45809352 0 1 -2.217772,0.1515 5.1665156,1.7455553 0.45809352 0 1 -4.733101,-1.08951 5.4028921,1.8240616 1.1114264 0 1 -0.624566,-0.87408 5.4028921,1.8240616 1.1114264 0 1 1.401938,-1.19022 z" />
      <g
         aria-label="V"
         transform="matrix(1.4064597,-0.01390499,0.02822869,1.1894785,-170.87292,-38.522354)"
         id="text2922"
         style="font-style:normal;font-variant:normal;font-weight:800;font-stretch:normal;font-size:10.7261px;line-height:1.25;font-family:Montserrat;-inkscape-font-specification:'Montserrat, Ultra-Bold';font-variant-ligatures:normal;font-variant-caps:normal;font-variant-numeric:normal;font-variant-east-asian:normal;white-space:pre;shape-inside:url(#rect2934);fill:#ff9a1a;fill-opacity:1;stroke:none">
        <path
           d="m 182.71717,151.27971 -2.08087,4.8911 -2.03796,-4.8911 h -2.29538 l 3.2071,7.50827 h 2.09159 l 3.21783,-7.50827 z"
           style="font-style:normal;font-variant:normal;font-weight:800;font-stretch:normal;font-size:10.7261px;font-family:Montserrat;-inkscape-font-specification:'Montserrat, Ultra-Bold';font-variant-ligatures:normal;font-variant-caps:normal;font-variant-numeric:normal;font-variant-east-asian:normal;fill:#ff9a1a;fill-opacity:1"
           id="path864" />
      </g>
      <path
         style="fill:#ff9a1a;fill-opacity:1;stroke:#ff9a1a;stroke-width:0.643182;stroke-linecap:round;stroke-linejoin:round;stroke-miterlimit:4;stroke-dasharray:none;stroke-opacity:1"
         d="m 80.453719,140.46032 5.277371,-2.28807 -3.853632,-1.59844 z"
         id="path2924"
         sodipodi:nodetypes="cccc"
         inkscape:transform-center-x="-1.8999808"
         inkscape:transform-center-y="1.1629768" />
      <path
         style="fill:#ff9a1a;fill-opacity:1;stroke:#ff9a1a;stroke-width:0.643182;stroke-linecap:round;stroke-linejoin:round;stroke-miterlimit:4;stroke-dasharray:none;stroke-opacity:1"
         d="m 94.316997,140.49078 -5.16,-2.52739 3.927205,-1.42004 z"
         id="path2926"
         sodipodi:nodetypes="cccc"
         inkscape:transform-center-x="1.8999811"
         inkscape:transform-center-y="1.1629768" />
      <path
         style="fill:#ff9a1a;fill-opacity:1;stroke:#ff9a1a;stroke-width:0.686717;stroke-linecap:round;stroke-linejoin:round;stroke-miterlimit:4;stroke-dasharray:none;stroke-opacity:1"
         d="m 90.663466,147.77345 -6.130964,-0.009 3.013019,3.21247 z"
         id="path2928"
         sodipodi:nodetypes="cccc"
         inkscape:transform-center-x="-0.17790464"
         inkscape:transform-center-y="2.9146117" />
    </g>
  </g>
</svg>
