<?xml version="1.0" encoding="UTF-8" standalone="no"?>
<svg
   xmlns:dc="http://purl.org/dc/elements/1.1/"
   xmlns:cc="http://creativecommons.org/ns#"
   xmlns:rdf="http://www.w3.org/1999/02/22-rdf-syntax-ns#"
   xmlns:svg="http://www.w3.org/2000/svg"
   xmlns="http://www.w3.org/2000/svg"
   xmlns:sodipodi="http://sodipodi.sourceforge.net/DTD/sodipodi-0.dtd"
   xmlns:inkscape="http://www.inkscape.org/namespaces/inkscape"
   width="77.619202mm"
   height="36.548744mm"
   viewBox="0 0 77.619202 36.548744"
   version="1.1"
   id="svg8"
   inkscape:version="1.0.1 (3bc2e813f5, 2020-09-07)"
   sodipodi:docname="reVerbLogo.svg"
   inkscape:export-filename="/home/cvanspl1/Pictures/logo_color4.png"
   inkscape:export-xdpi="95.624245"
   inkscape:export-ydpi="95.624245">
  <defs
     id="defs2">
    <rect
       x="176.45239"
       y="148.93062"
       width="85.069801"
       height="18.618977"
       id="rect1123" />
    <rect
       x="136.73732"
       y="123.93928"
       width="64.576942"
       height="38.066799"
       id="rect1457" />
    <rect
       x="285.03461"
       y="71.110397"
       width="629.4281"
       height="140.96797"
       id="rect1267" />
    <rect
       x="176.45239"
       y="148.93062"
       width="85.069801"
       height="18.618977"
       id="rect1131" />
    <rect
       x="176.45239"
       y="148.93062"
       width="85.069801"
       height="18.618977"
       id="rect1123-3" />
    <rect
       x="176.45239"
       y="148.93062"
       width="85.069801"
       height="18.618977"
       id="rect1142" />
    <rect
       x="176.45239"
       y="148.93062"
       width="85.069801"
       height="18.618977"
       id="rect1214" />
    <rect
       x="176.45239"
       y="148.93062"
       width="85.069801"
       height="18.618977"
       id="rect1220" />
    <rect
       x="176.45239"
       y="148.93062"
       width="85.069801"
       height="18.618977"
       id="rect1226" />
    <rect
       x="176.45239"
       y="148.93062"
       width="85.069801"
       height="18.618977"
       id="rect2039" />
    <rect
       x="176.45239"
       y="148.93062"
       width="85.069801"
       height="18.618977"
       id="rect2047" />
    <rect
       x="176.45239"
       y="148.93062"
       width="85.069801"
       height="18.618977"
       id="rect2055" />
    <rect
       x="176.45239"
       y="148.93062"
       width="85.069801"
       height="18.618977"
       id="rect2061" />
    <rect
       x="176.45239"
       y="148.93062"
       width="85.069801"
       height="18.618977"
       id="rect2271" />
    <rect
       x="176.45239"
       y="148.93062"
       width="85.069801"
       height="18.618977"
       id="rect1132" />
    <rect
       x="176.45239"
       y="148.93062"
       width="85.069801"
       height="18.618977"
       id="rect1153" />
    <rect
       x="176.45239"
       y="148.93062"
       width="85.069801"
       height="18.618977"
       id="rect1153-8" />
    <rect
       x="176.45239"
       y="148.93062"
       width="85.069801"
       height="18.618977"
       id="rect2523" />
    <rect
       x="176.45239"
       y="148.93062"
       width="85.069801"
       height="18.618977"
       id="rect2934" />
    <rect
       x="176.45239"
       y="148.93062"
       width="85.069801"
       height="18.618977"
       id="rect879" />
  </defs>
  <sodipodi:namedview
     id="base"
     pagecolor="#ffffff"
     bordercolor="#666666"
     borderopacity="1.0"
     inkscape:pageopacity="0.0"
     inkscape:pageshadow="2"
     inkscape:zoom="1.4142136"
     inkscape:cx="180.3116"
     inkscape:cy="54.978396"
     inkscape:document-units="mm"
     inkscape:current-layer="g2724"
     inkscape:document-rotation="0"
     showgrid="false"
     inkscape:window-width="1920"
     inkscape:window-height="1016"
     inkscape:window-x="0"
     inkscape:window-y="0"
     inkscape:window-maximized="1"
     inkscape:snap-global="false"
     showguides="true"
     inkscape:guide-bbox="true"
     fit-margin-top="0"
     fit-margin-left="0"
     fit-margin-right="0"
     fit-margin-bottom="0" />
  <metadata
     id="metadata5">
    <rdf:RDF>
      <cc:Work
         rdf:about="">
        <dc:format>image/svg+xml</dc:format>
        <dc:type
           rdf:resource="http://purl.org/dc/dcmitype/StillImage" />
        <dc:title />
      </cc:Work>
    </rdf:RDF>
  </metadata>
  <g
     inkscape:label="Layer 1"
     inkscape:groupmode="layer"
     id="layer1"
     transform="translate(-37.87938,-109.06839)">
    <g
       id="g2724"
       inkscape:export-xdpi="95.624245"
       inkscape:export-ydpi="95.624245">
      <g
         id="g906">
        <g
           aria-label="erb"
           transform="matrix(1.9999918,0.00569606,-0.00569606,1.9999918,-274.64396,-189.68585)"
           id="text1121-1"
           style="font-style:normal;font-variant:normal;font-weight:800;font-stretch:normal;font-size:10.5833px;line-height:1.25;font-family:Montserrat;-inkscape-font-specification:'Montserrat, Ultra-Bold';font-variant-ligatures:normal;font-variant-caps:normal;font-variant-numeric:normal;font-variant-east-asian:normal;letter-spacing:0px;white-space:pre;shape-inside:url(#rect1123-3);fill:#2b74a3;fill-opacity:1;stroke:none">
          <path
             d="m 182.96185,155.79924 c 0,-1.89441 -1.37582,-2.97391 -3.06915,-2.97391 -1.80975,0 -3.15383,1.22766 -3.15383,2.95274 0,1.7145 1.32292,2.97391 3.36549,2.97391 1.09008,0 1.89441,-0.3175 2.44475,-0.93133 l -1.05833,-1.10066 c -0.39159,0.33866 -0.762,0.49741 -1.32292,0.49741 -0.74083,0 -1.23824,-0.33866 -1.40758,-0.92075 h 4.16982 c 0.0106,-0.15875 0.0317,-0.34925 0.0317,-0.49741 z m -3.05857,-1.54516 c 0.62442,0 1.06891,0.381 1.17475,0.98424 h -2.3495 c 0.11642,-0.60324 0.55034,-0.98424 1.17475,-0.98424 z"
             style="font-style:normal;font-variant:normal;font-weight:800;font-stretch:normal;font-size:10.5833px;font-family:Montserrat;-inkscape-font-specification:'Montserrat, Ultra-Bold';font-variant-ligatures:normal;font-variant-caps:normal;font-variant-numeric:normal;font-variant-east-asian:normal"
             id="path882" />
          <path
             d="m 185.80874,153.6085 v -0.68792 h -1.91557 v 5.73615 h 2.01082 v -2.63524 c 0,-1.00542 0.56092,-1.41816 1.37583,-1.41816 0.14817,0 0.27517,0.0106 0.45508,0.0317 v -1.80975 c -0.84666,0 -1.51341,0.26458 -1.92616,0.78317 z"
             style="font-style:normal;font-variant:normal;font-weight:800;font-stretch:normal;font-size:10.5833px;font-family:Montserrat;-inkscape-font-specification:'Montserrat, Ultra-Bold';font-variant-ligatures:normal;font-variant-caps:normal;font-variant-numeric:normal;font-variant-east-asian:normal"
             id="path884" />
          <path
             d="m 192.16929,152.82533 c -0.66675,0 -1.2065,0.1905 -1.59808,0.59267 v -2.61408 h -2.01083 v 7.85281 h 1.91558 v -0.5715 c 0.381,0.45508 0.94191,0.66675 1.69333,0.66675 1.55574,0 2.81515,-1.143 2.81515,-2.97391 0,-1.82033 -1.25941,-2.95274 -2.81515,-2.95274 z m -0.42333,4.32857 c -0.67734,0 -1.2065,-0.49741 -1.2065,-1.37583 0,-0.86783 0.52916,-1.35466 1.2065,-1.35466 0.67733,0 1.20649,0.48683 1.20649,1.35466 0,0.87842 -0.52916,1.37583 -1.20649,1.37583 z"
             style="font-style:normal;font-variant:normal;font-weight:800;font-stretch:normal;font-size:10.5833px;font-family:Montserrat;-inkscape-font-specification:'Montserrat, Ultra-Bold';font-variant-ligatures:normal;font-variant-caps:normal;font-variant-numeric:normal;font-variant-east-asian:normal"
             id="path886" />
        </g>
        <g
           aria-label="re"
           transform="matrix(1.9999617,-0.01237858,0.01237858,1.9999617,-316.92824,-186.35053)"
           id="text1212"
           style="font-style:normal;font-variant:normal;font-weight:800;font-stretch:normal;font-size:10.5833px;line-height:1.25;font-family:Montserrat;-inkscape-font-specification:'Montserrat, Ultra-Bold';font-variant-ligatures:normal;font-variant-caps:normal;font-variant-numeric:normal;font-variant-east-asian:normal;letter-spacing:0px;white-space:pre;shape-inside:url(#rect1214);fill:#2b74a3;fill-opacity:1;stroke:none">
          <path
             d="m 179.01428,153.6085 v -0.68792 h -1.91557 v 5.73615 h 2.01082 v -2.63524 c 0,-1.00542 0.56092,-1.41816 1.37583,-1.41816 0.14817,0 0.27517,0.0106 0.45508,0.0317 v -1.80975 c -0.84666,0 -1.51341,0.26458 -1.92616,0.78317 z"
             style="font-size:10.5833px"
             id="path877" />
          <path
             d="m 187.57614,155.79924 c 0,-1.89441 -1.37583,-2.97391 -3.06916,-2.97391 -1.80974,0 -3.15382,1.22766 -3.15382,2.95274 0,1.7145 1.32291,2.97391 3.36549,2.97391 1.09008,0 1.89441,-0.3175 2.44474,-0.93133 l -1.05833,-1.10066 c -0.39158,0.33866 -0.762,0.49741 -1.32291,0.49741 -0.74083,0 -1.23825,-0.33866 -1.40758,-0.92075 h 4.16982 c 0.0106,-0.15875 0.0318,-0.34925 0.0318,-0.49741 z m -3.05857,-1.54516 c 0.62441,0 1.06891,0.381 1.17474,0.98424 h -2.34949 c 0.11642,-0.60324 0.55033,-0.98424 1.17475,-0.98424 z"
             style="font-size:10.5833px"
             id="path879" />
        </g>
        <g
           id="g2512"
           transform="matrix(0.26176452,0,0,0.26176452,50.644561,112.19089)">
          <g
             id="g2500">
            <path
               id="path1122"
               style="fill:#2b74a3;fill-opacity:1;stroke:#2b74a3;stroke-width:1.96058;stroke-linecap:round;stroke-linejoin:round;stroke-miterlimit:4;stroke-dasharray:none;stroke-dashoffset:5;stroke-opacity:1"
               d="m 104.18955,68.576246 -1.99544,1.942462 A 57.43976,21.542512 0.4848549 0 1 130.3413,89.307869 57.43976,21.542512 0.4848549 0 1 72.757631,110.38001 57.43976,21.542512 0.4848549 0 1 15.464781,88.361221 57.43976,21.542512 0.4848549 0 1 43.111352,70.198243 L 41.660753,68.707688 A 66.095972,28.391281 0.4241319 0 0 7.9300732,93.162372 66.095972,28.391281 0.4241319 0 0 73.809466,122.04996 66.095972,28.391281 0.4241319 0 0 140.11924,94.149378 66.095972,28.391281 0.4241319 0 0 104.18955,68.576246 Z" />
            <path
               id="path1124"
               style="fill:#2b74a3;fill-opacity:1;stroke:#2b74a3;stroke-width:9.56005;stroke-linecap:round;stroke-linejoin:round;stroke-miterlimit:4;stroke-dasharray:none;stroke-dashoffset:5;stroke-opacity:1"
               d="m 158.61523,321.89258 a 143.00552,50.76215 0.41919308 0 0 -52.18554,38.73437 143.00552,50.76215 0.41919308 0 0 142.61328,51.82422 143.00552,50.76215 0.41919308 0 0 143.38672,-49.70898 143.00552,50.76215 0.41919308 0 0 -49.75977,-38.94336 l -2.39453,2.39453 a 121.81771,40.400068 1.0868813 0 1 31.55273,27.94531 121.81771,40.400068 1.0868813 0 1 -72.7871,35.48438 116.48882,38.661067 0.44797144 0 1 -50.00391,3.35547 116.48882,38.661067 0.44797144 0 1 -106.7168,-24.13086 121.81771,40.400068 1.0868813 0 1 -14.08203,-19.35938 121.81771,40.400068 1.0868813 0 1 31.60938,-26.36133 z"
               transform="matrix(0.26458333,0,0,0.26458333,6.1889782,-9.1640791)" />
          </g>
          <g
             id="g2496"
             transform="matrix(1,0,0,0.98504216,0,-0.39928191)">
            <g
               aria-label="V"
               transform="matrix(8.3902868,-0.08272147,0.16839929,7.0762639,-1468.8477,-1047.9008)"
               id="text1149"
               style="font-style:normal;font-variant:normal;font-weight:800;font-stretch:normal;font-size:10.7261px;line-height:1.25;font-family:Montserrat;-inkscape-font-specification:'Montserrat, Ultra-Bold';font-variant-ligatures:normal;font-variant-caps:normal;font-variant-numeric:normal;font-variant-east-asian:normal;white-space:pre;shape-inside:url(#rect1153-8);fill:#ff9a1a;fill-opacity:1;stroke:none">
              <path
                 d="m 182.71717,151.27971 -2.08087,4.8911 -2.03796,-4.8911 h -2.29538 l 3.2071,7.50827 h 2.09159 l 3.21783,-7.50827 z"
                 style="font-style:normal;font-variant:normal;font-weight:800;font-stretch:normal;font-size:10.7261px;font-family:Montserrat;-inkscape-font-specification:'Montserrat, Ultra-Bold';font-variant-ligatures:normal;font-variant-caps:normal;font-variant-numeric:normal;font-variant-east-asian:normal;fill:#ff9a1a;fill-opacity:1"
                 id="path874" />
            </g>
            <path
               style="fill:#ff9a1a;fill-opacity:1;stroke:#ff9a1a;stroke-width:3.83162;stroke-linecap:round;stroke-linejoin:round;stroke-miterlimit:4;stroke-dasharray:none;stroke-opacity:1"
               d="M 30.450501,16.875608 61.932852,3.26377 38.94387,-6.2454365 Z"
               id="path2438"
               sodipodi:nodetypes="cccc"
               inkscape:transform-center-x="-1.8999808"
               inkscape:transform-center-y="1.1629768" />
            <path
               style="fill:#ff9a1a;fill-opacity:1;stroke:#ff9a1a;stroke-width:3.83162;stroke-linecap:round;stroke-linejoin:round;stroke-miterlimit:4;stroke-dasharray:none;stroke-opacity:1"
               d="M 113.15239,17.056806 82.370222,2.0212223 105.79811,-6.4266141 Z"
               id="path2440"
               sodipodi:nodetypes="cccc"
               inkscape:transform-center-x="1.8999811"
               inkscape:transform-center-y="1.1629768" />
            <path
               style="fill:#ff9a1a;fill-opacity:1;stroke:#ff9a1a;stroke-width:4.09097;stroke-linecap:round;stroke-linejoin:round;stroke-miterlimit:4;stroke-dasharray:none;stroke-opacity:1"
               d="m 91.357116,60.381748 -36.574484,-0.0551 17.97427,19.111163 z"
               id="path2442"
               sodipodi:nodetypes="cccc"
               inkscape:transform-center-x="-0.17790464"
               inkscape:transform-center-y="2.9146117" />
          </g>
        </g>
      </g>
    </g>
  </g>
</svg>
